<svg version="1.1" xmlns="http://www.w3.org/2000/svg" xmlns:xlink="http://www.w3.org/1999/xlink" width="493.11217" height="708.54442" viewBox="0,0,493.11217,708.54442"><g transform="translate(89.61217,22.5)"><g data-paper-data="{&quot;isPaintingLayer&quot;:true}" fill-rule="nonzero" stroke="none" stroke-linecap="butt" stroke-linejoin="miter" stroke-miterlimit="10" stroke-dasharray="" stroke-dashoffset="0" style="mix-blend-mode: normal"><path d="M-74.5,684.5v-707h478v707z" fill="#000000" stroke-width="0"/><path d="M-77.26677,604.82036c-14.45267,-11.91021 -16.51374,-33.28155 -4.60351,-47.73423l123.83773,-150.27315c11.91021,-14.45267 33.28155,-16.51374 47.73423,-4.60351l89.16828,73.48218c14.45267,11.91021 16.51374,33.28155 4.60351,47.73423l-123.83773,150.27315c-11.91021,14.45267 -33.28155,16.51374 -47.73423,4.60351z" fill="#646464" stroke-width="NaN"/><path d="M249.31156,57.00679c18.2362,0.24415 32.82162,15.22542 32.57748,33.46161l-2.53855,189.61275c-0.24415,18.2362 -15.22542,32.82162 -33.46161,32.57748l-112.5114,-1.50631c-18.2362,-0.24415 -32.82162,-15.22542 -32.57748,-33.46161l2.53855,-189.61275c0.24415,-18.2362 15.22542,-32.82162 33.46161,-32.57748z" fill="#b00000" stroke-width="NaN"/><text transform="translate(135.5,391.1125) scale(1.5,1.5)" font-size="40" xml:space="preserve" fill="#ffffff" fill-rule="nonzero" stroke="none" stroke-width="1" stroke-linecap="butt" stroke-linejoin="miter" stroke-miterlimit="10" stroke-dasharray="" stroke-dashoffset="0" font-family="Arcade" font-weight="normal" text-anchor="start" style="mix-blend-mode: normal"><tspan x="0" dy="0">Car</tspan></text><text transform="translate(176.5,455.75) scale(1.43174,1.43174)" font-size="40" xml:space="preserve" fill="#ffffff" fill-rule="nonzero" stroke="none" stroke-width="1" stroke-linecap="butt" stroke-linejoin="miter" stroke-miterlimit="10" stroke-dasharray="" stroke-dashoffset="0" font-family="Arcade" font-weight="normal" text-anchor="start" style="mix-blend-mode: normal"><tspan x="0" dy="0">Run</tspan></text></g></g></svg>